# xmcd CD database file
#
# Track frame offsets:
#	150
#	24795
#	35245
#	51882
#	63935
#	74945
#	89027
#	108292
#	121075
#	135162
#	149317
#	174755
#	188517
#	201230
#	212097
#	224665
#	238065
#	253465
#	269207
#	270370
#	278375
#	282390
#	289702
#
# Disc length: 4264 seconds
#
# Revision: 0
# Processed by: cddbd v1.5.1PL0 Copyright (c) Steve Scherf et al.
# Submitted via: CDex 1.51
#
DISCID=6e10a617
DTITLE=Duke Ellington - Jazz Volume 3
DYEAR=1900
DGENRE=Jazz
TTITLE0=The mooche
TTITLE1=Ring dem bells
TTITLE2=Frustration
TTITLE3=Colorotura
TTITLE4=Rose of the rio grande
TTITLE5=Love you madly
TTITLE6=Harlem speaks
TTITLE7=Caravan
TTITLE8=Primpin' at the prom
TTITLE9=Jam with sam
TTITLE10=One o'clock jump
TTITLE11=Take the 'a' train
TTITLE12=Crosstown
TTITLE13=Perdido
TTITLE14=Pretty woman
TTITLE15=9.20 special
TTITLE16=Moon mist
TTITLE17=Just squeeze me
TTITLE18=Prelude to a kiss
TTITLE19=I'm just a lucky so 'n' so
TTITLE20=I let a song go out of my heart
TTITLE21=Do nothin till you hear from me
TTITLE22=Tootie for cootie
EXTD=
EXTT0=
EXTT1=
EXTT2=
EXTT3=
EXTT4=
EXTT5=
EXTT6=
EXTT7=
EXTT8=
EXTT9=
EXTT10=
EXTT11=
EXTT12=
EXTT13=
EXTT14=
EXTT15=
EXTT16=
EXTT17=
EXTT18=
EXTT19=
EXTT20=
EXTT21=
EXTT22=
PLAYORDER=
